<svg width="32" height="32" viewBox="0 0 32 32" fill="none" xmlns="http://www.w3.org/2000/svg">
<path d="M28.174 17.3833C28.174 12.1749 23.8482 7.95163 18.5133 7.95163H17.6519V13.1915H18.5133C20.8802 13.1915 22.807 15.0726 22.807 17.3833V21.8634H28.174V17.3833Z" fill="#FF6542"/>
<path d="M3.82568 11.5199C3.82568 6.31156 8.15156 2.08826 13.4865 2.08826H14.3479V7.32808H13.4865C11.1196 7.32808 9.19278 9.20918 9.19278 11.5199V16H3.82568V11.5199Z" fill="#FF6542"/>
<path d="M17.6516 20.4827C17.6516 25.691 13.3257 29.9143 7.99081 29.9143H7.12939V24.6745H7.99081C10.3577 24.6745 12.2845 22.7934 12.2845 20.4827V16.0026H17.6516V20.4827Z" fill="#FF6542"/>
</svg>
